<svg width="27" height="28" viewBox="0 0 27 28" fill="none" xmlns="http://www.w3.org/2000/svg">
<path d="M1.09644 4.89614H18.3131C18.6513 6.86647 20.3724 8.36795 22.4318 8.36795C24.7404 8.36795 26.6157 6.49258 26.6157 4.18398C26.6157 1.87537 24.7404 0 22.4318 0C20.3665 0 18.6513 1.50148 18.3131 3.47181H1.09644C0.704752 3.47181 0.384277 3.79228 0.384277 4.18398C0.384277 4.57567 0.704752 4.89614 1.09644 4.89614ZM22.4318 1.42433C23.951 1.42433 25.1914 2.65875 25.1914 4.18398C25.1914 5.7092 23.957 6.94362 22.4318 6.94362C20.9065 6.94362 19.6721 5.70326 19.6721 4.18398C19.6721 2.66469 20.9125 1.42433 22.4318 1.42433Z" fill="#3D3780"/>
<path d="M17.5356 13.9644C17.5356 14.356 17.8561 14.6765 18.2478 14.6765C18.6395 14.6765 18.96 14.356 18.96 13.9644C18.96 13.5727 18.6395 13.2522 18.2478 13.2522C17.8502 13.2522 17.5356 13.5727 17.5356 13.9644Z" fill="#3D3780"/>
<path d="M14.9839 13.9644C14.9839 14.356 15.3044 14.6765 15.6961 14.6765C16.0878 14.6765 16.4082 14.356 16.4082 13.9644C16.4082 13.5727 16.0878 13.2522 15.6961 13.2522C15.2984 13.2522 14.9839 13.5727 14.9839 13.9644Z" fill="#3D3780"/>
<path d="M20.0874 13.9644C20.0874 14.356 20.4079 14.6765 20.7996 14.6765C21.1912 14.6765 21.5117 14.356 21.5117 13.9644C21.5117 13.5727 21.1912 13.2522 20.7996 13.2522C20.4079 13.2522 20.0874 13.5727 20.0874 13.9644Z" fill="#3D3780"/>
<path d="M22.6396 13.9644C22.6396 14.356 22.9601 14.6765 23.3518 14.6765C23.7435 14.6765 24.064 14.356 24.064 13.9644C24.064 13.5727 23.7435 13.2522 23.3518 13.2522C22.9601 13.2522 22.6396 13.5727 22.6396 13.9644Z" fill="#3D3780"/>
<path d="M9.87988 13.9644C9.87988 14.356 10.2004 14.6765 10.592 14.6765C10.9837 14.6765 11.3042 14.356 11.3042 13.9644C11.3042 13.5727 10.9837 13.2522 10.592 13.2522C10.2004 13.2522 9.87988 13.5727 9.87988 13.9644Z" fill="#3D3780"/>
<path d="M12.4316 13.9644C12.4316 14.356 12.7521 14.6765 13.1438 14.6765C13.5355 14.6765 13.856 14.356 13.856 13.9644C13.856 13.5727 13.5355 13.2522 13.1438 13.2522C12.7462 13.2522 12.4316 13.5727 12.4316 13.9644Z" fill="#3D3780"/>
<path d="M4.56825 18.1483C6.87685 18.1483 8.75222 16.273 8.75222 13.9644C8.75222 11.6558 6.87685 9.7804 4.56825 9.7804C2.25965 9.7804 0.384277 11.6558 0.384277 13.9644C0.384277 16.267 2.25965 18.1483 4.56825 18.1483ZM4.56825 11.2047C6.08754 11.2047 7.32789 12.4391 7.32789 13.9644C7.32789 15.4896 6.09347 16.724 4.56825 16.724C3.04303 16.724 1.80861 15.4837 1.80861 13.9644C1.80861 12.4451 3.04303 11.2047 4.56825 11.2047Z" fill="#3D3780"/>
<path d="M22.4318 19.632C20.3665 19.632 18.6513 21.1335 18.3131 23.1038H1.09644C0.704752 23.1038 0.384277 23.4243 0.384277 23.816C0.384277 24.2077 0.704752 24.5282 1.09644 24.5282H18.3131C18.6513 26.4985 20.3724 28 22.4318 28C24.7404 28 26.6157 26.1246 26.6157 23.816C26.6157 21.5074 24.7404 19.632 22.4318 19.632ZM22.4318 26.5756C20.9125 26.5756 19.6721 25.3412 19.6721 23.816C19.6721 22.2908 20.9065 21.0564 22.4318 21.0564C23.957 21.0564 25.1914 22.2908 25.1914 23.816C25.1914 25.3412 23.957 26.5756 22.4318 26.5756Z" fill="#3D3780"/>
</svg>
