<svg width="28" height="28" viewBox="0 0 28 28" fill="none" xmlns="http://www.w3.org/2000/svg">
<path d="M10.8796 26.8194H11.2546V26.4444V17.1111V16.7361H10.8796H1.55423H1.17923V17.1111V26.4444V26.8194H1.55423H10.8796ZM10.8796 11.2639H11.2546V10.8889V1.55556V1.18056H10.8796H1.55423H1.17923V1.55556V10.8889V11.2639H1.55423H10.8796ZM26.4219 11.2639H26.7969V10.8889V1.55556V1.18056H26.4219H17.0965H16.7215V1.55556V10.8889V11.2639H17.0965H26.4219ZM22.1613 21V21.375H22.5363H27.199C27.3469 21.375 27.4409 21.4227 27.4972 21.4789C27.5534 21.5352 27.6012 21.6296 27.6012 21.7778C27.6012 21.926 27.5534 22.0203 27.4972 22.0766C27.4409 22.1329 27.3469 22.1806 27.199 22.1806H22.5363H22.1613V22.5556V27.2222C22.1613 27.3704 22.1136 27.4648 22.0574 27.5211C22.0011 27.5773 21.907 27.625 21.7592 27.625C21.6114 27.625 21.5173 27.5773 21.4611 27.5211C21.4048 27.4648 21.3571 27.3704 21.3571 27.2222V22.5556V22.1806H20.9821H16.3194C16.1716 22.1806 16.0775 22.1329 16.0213 22.0766C15.965 22.0203 15.9173 21.926 15.9173 21.7778C15.9173 21.6296 15.965 21.5352 16.0213 21.4789C16.0775 21.4227 16.1716 21.375 16.3194 21.375H20.9821H21.3571V21V16.3333C21.3571 16.1851 21.4048 16.0908 21.4611 16.0345C21.5173 15.9782 21.6114 15.9306 21.7592 15.9306C21.907 15.9306 22.0011 15.9782 22.0574 16.0345C22.1136 16.0908 22.1613 16.1851 22.1613 16.3333V21ZM0.777115 15.9306H11.6567C11.8046 15.9306 11.8986 15.9782 11.9549 16.0345C12.0111 16.0908 12.0588 16.1851 12.0588 16.3333V27.2222C12.0588 27.3704 12.0111 27.4648 11.9549 27.5211C11.8986 27.5773 11.8046 27.625 11.6567 27.625H0.777115C0.629295 27.625 0.535208 27.5773 0.478985 27.5211C0.422733 27.4648 0.375 27.3704 0.375 27.2222V16.3333C0.375 16.1851 0.422734 16.0908 0.478985 16.0345C0.535208 15.9782 0.629295 15.9306 0.777115 15.9306ZM0.777115 0.375H11.6567C11.8046 0.375 11.8986 0.42267 11.9549 0.478941C12.0111 0.53524 12.0588 0.629566 12.0588 0.777778V11.6667C12.0588 11.8149 12.0111 11.9092 11.9549 11.9655C11.8986 12.0218 11.8046 12.0694 11.6567 12.0694H0.777115C0.629295 12.0694 0.535208 12.0218 0.478985 11.9655C0.422734 11.9092 0.375 11.8149 0.375 11.6667V0.777778C0.375 0.629566 0.422734 0.53524 0.478985 0.478941C0.535208 0.42267 0.629295 0.375 0.777115 0.375ZM16.3194 0.375H27.199C27.3469 0.375 27.4409 0.42267 27.4972 0.478941C27.5534 0.53524 27.6012 0.629566 27.6012 0.777778V11.6667C27.6012 11.8149 27.5534 11.9092 27.4972 11.9655C27.4409 12.0218 27.3469 12.0694 27.199 12.0694H16.3194C16.1716 12.0694 16.0775 12.0218 16.0213 11.9655C15.965 11.9092 15.9173 11.8149 15.9173 11.6667V0.777778C15.9173 0.629566 15.965 0.53524 16.0213 0.478941C16.0775 0.42267 16.1716 0.375 16.3194 0.375Z" fill="#5F2EEA" stroke="#3D3780" stroke-width="0.75"/>
</svg>
